<svg id="Layer_1" enable-background="new 0 0 511.76 511.76" height="512" viewBox="0 0 511.76 511.76" width="512" xmlns="http://www.w3.org/2000/svg"><g><path d="m346.435 220.625v-24.865l-13.935 24.865z"/><path d="m441.943 192.552h69.625c-7.359-102.814-89.738-185.193-192.552-192.552v69.626h-30v-69.626c-57.359 4.106-108.352 31.562-143.514 72.89l47.269 47.176c8.502 8.484 13.188 19.772 13.195 31.785s-4.667 23.306-13.162 31.801l-8.692 8.691c-10.472 10.472-13.27 25.159-8.314 43.651 11.078 41.342 58.817 89.082 100.16 100.16 18.493 4.954 33.179 2.157 43.651-8.314l8.621-8.621c8.488-8.487 19.773-13.162 31.777-13.162 12.003 0 23.289 4.675 31.776 13.163l46.869 46.869c41.343-35.163 68.81-86.166 72.916-143.537h-69.625zm-144.2 71.182h-71.158v-12.359l39.662-50.803c6.109-7.776 7.183-11.403 7.183-16.152 0-3.515-.84-6.191-2.645-8.42-1.068-1.292-3.124-3.062-8.259-3.062-6.514 0-10.869 4.797-11.649 12.833l-.53 5.453-21.836-4.16.252-4.379c.505-8.751 3.996-16.249 10.375-22.284 6.523-6.008 14.375-9.031 23.388-9.031 10.945 0 19.604 3.54 25.734 10.521 5.045 5.742 7.604 13.322 7.604 22.528 0 8.7-2.979 16.874-9.106 24.989l-25.324 32.76h36.31v21.566zm83.704-21.543h-12.579v21.542h-22.434v-21.542h-43.952v-11.392l44.899-78.271h21.487v68.098h12.579z"/><path d="m417.581 387.484-3.441-3.441-43.59-43.591c-.256-.256-.523-.498-.785-.747-5.864-5.072-14.757-4.838-20.322.727l-8.621 8.621c-18.075 18.075-43.867 23.784-72.629 16.079-21.299-5.707-43.218-18.44-62.624-35.054-9.157-7.613-17.801-16.325-25.381-25.691-15.787-18.906-27.855-40.056-33.367-60.628-7.706-28.761-1.996-54.554 16.08-72.629l8.691-8.691c2.823-2.824 4.377-6.578 4.375-10.572-.002-3.598-1.277-6.994-3.595-9.696-.277-.292-.547-.588-.833-.873l-43.993-43.901-3.088-3.081c-8.484-8.466-19.758-13.129-31.744-13.129-12.003 0-23.289 4.674-31.777 13.162l-23.537 23.538c-41.467 41.466-48.532 102.368-19.896 171.487 22.458 54.204 65.633 109.756 118.456 152.412 55.881 45.126 114.713 69.974 165.677 69.974h.028c36.631-.006 67.72-12.524 92.402-37.207l23.515-23.516c17.521-17.522 17.521-46.031-.001-63.553z"/></g></svg>