<?xml version="1.0"?>
<svg xmlns="http://www.w3.org/2000/svg"

     xmlns:xlink="http://www.w3.org/1999/xlink" x="0px" y="0px"
     id="Layer_1" data-name="Layer 1" viewBox="0 0 512 512" width="512" height="512">
    <defs>

    </defs>
    <title>Car Service</title>
    <path d="M496.54,212.733l-46.74-4.491a201.125,201.125,0,0,0-23.761-56.263l29.675-35.866a8,8,0,0,0-.518-10.759l-49.81-49.811a8,8,0,0,0-10.763-.5L358.778,84.724a195.45,195.45,0,0,0-56.29-23.715L298,14.322A8.078,8.078,0,0,0,290.033,7H221.974a8.078,8.078,0,0,0-7.963,7.322L209.52,60.965a195.566,195.566,0,0,0-56.291,23.742L117.388,55.033a8,8,0,0,0-10.76.509l-49.811,49.8a8,8,0,0,0-.505,10.762l29.7,35.866a200.988,200.988,0,0,0-23.7,56.272l-46.85,4.491A8.2,8.2,0,0,0,8,220.7V291.3a8.2,8.2,0,0,0,7.461,7.963l46.708,4.488a195.6,195.6,0,0,0,23.77,56.288L56.283,395.887a8,8,0,0,0,.519,10.759l49.81,49.8a8,8,0,0,0,10.763.5l35.866-29.7a200.964,200.964,0,0,0,56.266,23.709l4.5,46.627a8,8,0,0,0,7.963,7.233l68.063,0h0a8,8,0,0,0,7.963-7.232l4.5-46.627a200.959,200.959,0,0,0,56.264-23.71l35.865,29.7a8,8,0,0,0,10.76-.5l49.8-49.8a8,8,0,0,0,.5-10.759L426,360.046a195.446,195.446,0,0,0,23.718-56.292l46.825-4.491A8.2,8.2,0,0,0,504,291.3V220.7A8.2,8.2,0,0,0,496.54,212.733Zm-8.54,71.3-45.32,4.346a8.131,8.131,0,0,0-7.165,6.273A179.9,179.9,0,0,1,409.5,356.229a8,8,0,0,0,.48,9.522l28.751,34.733-39.509,39.5-34.737-28.767a8,8,0,0,0-9.489-.531,185.229,185.229,0,0,1-61.65,26,8,8,0,0,0-6.233,7.043l-4.347,45.092-53.53,0-4.347-45.092a8,8,0,0,0-6.232-7.043,185.26,185.26,0,0,1-61.651-26,8,8,0,0,0-9.486.531l-34.733,28.767-39.5-39.5,28.766-34.733a8,8,0,0,0,.508-9.521A179.793,179.793,0,0,1,76.6,294.654a8.265,8.265,0,0,0-7.28-6.274L24,284.038V227.962l45.317-4.342a8.131,8.131,0,0,0,7.157-6.233,185.414,185.414,0,0,1,26.046-61.658,8,8,0,0,0-.5-9.485L73.267,111.51l39.516-39.5,34.738,28.767a8.007,8.007,0,0,0,9.524.508A179.772,179.772,0,0,1,218.62,75.323a8.1,8.1,0,0,0,6.273-7.141L229.24,23h53.527l4.346,45.182a8.051,8.051,0,0,0,6.274,7.1,179.849,179.849,0,0,1,61.573,25.981,8,8,0,0,0,9.522-.5L399.215,72l39.5,39.512L409.952,146.25a8,8,0,0,0-.532,9.487,185.233,185.233,0,0,1,25.99,61.65,8.266,8.266,0,0,0,7.271,6.232L488,227.962Z"
         />
    <path d="M256.958,100.594c-85.691,0-155.406,69.715-155.406,155.406s69.715,155.406,155.406,155.406S412.364,341.691,412.364,256,342.649,100.594,256.958,100.594Zm0,294.812c-76.869,0-139.406-62.537-139.406-139.406s62.537-139.406,139.406-139.406S396.364,179.131,396.364,256,333.826,395.406,256.958,395.406Z"
           />
    <path d="M337.284,178.954A22.857,22.857,0,0,0,316.15,164H198.756a22.857,22.857,0,0,0-21.134,14.954l-15.935,43.129-6.183,5.689A30.011,30.011,0,0,0,145,250.435v79.071A8.662,8.662,0,0,0,153.262,338h41.192c4.418,0,7.546-4.075,7.546-8.494V309H310v20.506c0,4.419,3.125,8.494,7.544,8.494h41.192A8.664,8.664,0,0,0,367,329.506V248.77a30.059,30.059,0,0,0-9.28-21.487l-4.185-4.526Zm-144.659,5.675A6.913,6.913,0,0,1,198.756,180H316.15a6.913,6.913,0,0,1,6.131,4.629L334.882,219H180.023ZM186,322H161V309h25Zm140,0V309h25v13Zm25-29H161V250.435a13.909,13.909,0,0,1,5-10.528c.093-.079.249-.044.338-.127l5.33-4.78H342.681l3.379,3.5c.113.12.361.18.481.293A13.863,13.863,0,0,1,351,248.77V293Z"
        />
    <path d="M190.018,246h-3.56a20,20,0,0,0,0,40h3.56a20,20,0,0,0,0-40Zm0,24h-3.56a4,4,0,0,1,0-8h3.56a4,4,0,0,1,0,8Z"
        />
    <path d="M325.54,246h-3.56a20,20,0,0,0,0,40h3.56a20,20,0,0,0,0-40Zm0,24h-3.56a4,4,0,0,1,0-8h3.56a4,4,0,0,1,0,8Z"
          />
    <path d="M296,255a8,8,0,0,0-8-8H225a8,8,0,0,0-8,8v23a8,8,0,0,0,8,8h63a8,8,0,0,0,8-8Zm-17,15H233v-7h46Z"
           />
</svg>
