<?xml version="1.0" encoding="utf-8"?>
<!-- Svg Vector Icons : http://www.onlinewebfonts.com/icon -->
<!DOCTYPE svg PUBLIC "-//W3C//DTD SVG 1.1//EN" "http://www.w3.org/Graphics/SVG/1.1/DTD/svg11.dtd">
<svg version="1.1" xmlns="http://www.w3.org/2000/svg" xmlns:xlink="http://www.w3.org/1999/xlink" x="0px" y="0px" viewBox="0 0 1000 1000" enable-background="new 0 0 1000 1000" xml:space="preserve">
<metadata> Svg Vector Icons : http://www.onlinewebfonts.com/icon </metadata>
<g><g transform="translate(0.000000,480.000000) scale(0.100000,-0.100000)"><path d="M3048,4384.9c-1082.3-93.8-2053.5-739.4-2578.3-1710.6c-159-291.2-287.3-676.2-346.7-1034.4c-30.6-185.8-30.6-733.7,0-919.5C303.1-363.7,963.9-1248.7,1950.4-1721.9c429.1-205,902.2-314.1,1371.5-316.1h137.9v149.4v151.3l-281.6,11.5c-764.3,32.6-1394.5,308.4-1932.8,844.8C824.1-457.6,577-1.7,448.6,594c-36.4,162.8-42.1,252.9-42.1,586.2c0,333.3,5.7,423.3,42.1,586.2c128.3,595.7,375.5,1051.6,796.9,1475c536.4,534.4,1168.5,812.2,1929,844.8c850.5,34.5,1603.3-264.3,2187.6-873.5l132.2-136l114.9,101.5l114.9,99.6l-222.2,214.5C4837.2,4134,3933,4463.5,3048,4384.9z"/><path d="M3153.4,3632.1v-153.2h153.3h153.2v153.2v153.2h-153.2h-153.3V3632.1z"/><path d="M1467.7,2865.9v-153.2H1621h153.2v153.2v153.2H1621h-153.2V2865.9z"/><path d="M4685.8,2865.9v-153.2h153.2h153.3v153.2v153.2h-153.3h-153.2V2865.9z"/><path d="M3153.4,2057.5v-810.3l-434.8-434.8l-436.7-436.7l111.1-109.2l109.2-111.1L2981,634.3l478.9,478.9v875.4v877.3h-153.2h-153.3V2057.5z"/><path d="M6068.9,2846.7c-358.2-51.7-614.9-168.6-827.5-383.1c-174.3-172.4-268.2-342.9-339.1-609.1c-44.1-168.6-49.8-229.9-57.5-655.1c-9.6-427.2-5.8-490.4,30.7-687.7c51.7-272,147.5-561.3,250.9-770.1c84.3-168.6,216.5-364,285.4-427.2c36.4-32.6,40.2-57.5,40.2-235.6c0-180-3.8-199.2-32.6-193.5c-24.9,5.7-80.4-59.4-208.8-252.9L5036.4-1628l-208.8-97.7c-114.9-53.6-360.1-155.2-544-226c-620.6-237.5-819.9-348.6-1034.4-578.5c-212.6-222.2-337.1-513.4-383.1-886.9c-9.6-88.1-19.2-434.8-19.2-770.1v-609.2h151.3h151.3l7.7,733.7c7.7,616.8,13.4,749,42.1,846.7c99.6,348.6,260.5,545.9,586.2,724.1c69,38.3,335.2,151.3,593.8,252.9c256.7,101.5,528.7,216.4,601.5,252.9l132.2,67.1l298.8-298.8c164.7-164.7,310.3-298.8,323.7-298.8c13.4,0,160.9,69,329.5,153.2l306.5,153.2l306.5-153.2c168.6-84.3,316.1-153.2,329.5-153.2c13.4,0,159,134.1,323.7,298.8l298.8,298.8l132.2-67.1c72.8-36.4,342.9-149.4,601.5-252.9c524.9-208.8,574.7-231.8,735.6-341c160.9-109.2,272-231.8,348.6-386.9c124.5-256.7,128.3-287.3,137.9-1097.6l7.7-731.8h153.2H9900l-9.6,712.6c-7.7,641.7-13.4,731.8-49.8,886.9c-59.4,252.9-185.8,498.1-342.9,662.8c-220.3,235.6-369.7,319.9-998,567c-227.9,88.1-498,201.1-603.4,250.9l-189.6,88.1l-174.3,260.5c-128.3,193.5-183.9,258.6-206.9,252.9c-30.6-5.7-34.5,13.4-34.5,193.5c0,178.2,3.8,203.1,40.2,235.6c69,63.2,201.1,258.6,285.4,427.2c103.4,208.8,199.2,498,250.9,770.1c36.4,197.3,40.2,260.5,30.7,687.7c-7.7,394.6-15.3,496.1-49.8,632.1c-132.2,522.9-461.6,850.5-978.8,976.9C6683.8,2854.4,6260.4,2873.6,6068.9,2846.7z M6888.7,2501.9c354.4-101.5,551.7-296.9,647.5-643.6c21.1-76.6,44.1-203.1,51.7-281.6l13.4-145.6l-239.4-118.8l-237.5-118.8l-749,298.8c-411.8,166.7-762.4,300.7-779.6,300.7c-15.3,0-114.9-42.1-220.3-95.8c-105.4-51.7-197.3-95.8-203-95.8c-21.1,0,5.8,174.3,49.8,310.3c107.3,344.8,369.7,551.7,798.8,628.3c49.8,9.6,233.7,13.4,408,9.6C6679.9,2544.1,6773.8,2534.5,6888.7,2501.9z M6377.3,1170.6c408-162.8,754.7-296.9,770.1-296.9s124.5,47.9,239.4,105.4l210.7,105.4v-205c0-425.2-180.1-978.8-411.8-1273.8c-99.6-126.4-149.4-157.1-350.5-208.8C6442.4-704.7,5827.5-647.2,5643.6-494c-92,78.5-243.3,325.6-323.7,534.4c-122.6,314.2-174.3,586.2-174.3,917.6v279.7l226,113c122.6,63.2,233.7,114.9,243.3,114.9C5626.4,1467.5,5969.3,1333.4,6377.3,1170.6z M5940.5-919.2c101.5-21.1,247.1-32.6,431-32.6s329.5,11.5,431,32.6c84.3,17.2,159,30.6,168.6,30.6c7.7,0,13.4-63.2,13.4-139.8v-141.8L6678-1220l-306.5-51.7l-306.5,51.7l-306.5,49.8v141.8c0,76.6,5.7,139.8,15.3,139.8C5781.6-888.6,5856.3-902,5940.5-919.2z M5971.2-1511.2l400.4-67.1l400.4,67.1c220.3,36.4,411.8,67.1,427.2,67.1c24.9,0,187.7-224.1,187.7-258.6c0-11.5-97.7-116.8-216.5-235.6L6952-2156.7l-289.2,145.6l-291.2,145.6l-291.2-145.6l-289.2-145.6l-218.4,218.4c-118.8,118.8-216.5,224.1-216.5,233.7c0,38.3,159,260.5,185.8,260.5C5557.4-1444.1,5750.9-1474.8,5971.2-1511.2z"/><path d="M701.5,1180.2V1027h153.2H1008v153.2v153.2H854.7H701.5V1180.2z"/><path d="M1467.7-505.5v-153.3H1621h153.2v153.3v153.2H1621h-153.2V-505.5z"/><path d="M3153.4-1271.7V-1425h153.3h153.2v153.2v153.3h-153.2h-153.3V-1271.7z"/><path d="M6218.3-2804.2v-153.2h153.2h153.2v153.2v153.2h-153.2h-153.2V-2804.2z"/><path d="M6218.3-3417.1v-153.2h153.2h153.2v153.2v153.2h-153.2h-153.2V-3417.1z"/><path d="M4072.9-4336.6v-459.7h153.2h153.3v459.7v459.7h-153.3h-153.2V-4336.6z"/><path d="M8363.7-4336.6v-459.7H8517h153.2v459.7v459.7H8517h-153.3V-4336.6z"/></g></g>
</svg>